<?xml version="1.0" standalone="no"?>
<!DOCTYPE svg PUBLIC "-//W3C//DTD SVG 20010904//EN"
 "http://www.w3.org/TR/2001/REC-SVG-20010904/DTD/svg10.dtd">
<svg version="1.0" xmlns="http://www.w3.org/2000/svg"
 width="270.000000pt" height="270.000000pt" viewBox="0 0 270.000000 270.000000"
 preserveAspectRatio="xMidYMid meet">
<metadata>
Created by potrace 1.14, written by Peter Selinger 2001-2017
</metadata>
<g transform="translate(0.000000,270.000000) scale(0.100000,-0.100000)"
fill="#000000" stroke="none">
<path d="M1304 2618 c-2 -3 -23 -7 -47 -7 -53 -1 -104 -7 -137 -16 -14 -4 -32
-8 -40 -10 -8 -1 -23 -5 -32 -9 -9 -4 -22 -5 -28 -1 -5 3 -10 1 -10 -5 0 -7
-7 -10 -15 -6 -8 3 -15 1 -15 -4 0 -6 -9 -10 -19 -10 -11 0 -23 -5 -26 -11 -4
-6 -13 -8 -21 -5 -8 3 -14 2 -14 -3 0 -5 -10 -11 -22 -15 -13 -3 -25 -6 -28
-7 -3 -1 -16 -9 -30 -19 -14 -9 -40 -23 -57 -31 -18 -8 -33 -17 -33 -21 0 -5
-6 -8 -13 -8 -8 0 -22 -9 -32 -20 -10 -11 -20 -18 -23 -15 -3 2 -16 -8 -28
-23 -13 -15 -24 -23 -24 -19 0 4 -15 -8 -32 -28 -18 -19 -36 -35 -41 -35 -10
0 -131 -131 -182 -196 -11 -14 -30 -37 -43 -51 -12 -14 -22 -32 -22 -40 0 -7
-7 -16 -15 -19 -8 -4 -12 -10 -9 -15 3 -5 0 -9 -6 -9 -6 0 -9 -4 -5 -9 3 -5
-1 -16 -9 -24 -8 -8 -13 -17 -10 -19 2 -3 -2 -11 -11 -18 -8 -7 -15 -21 -15
-31 0 -11 -5 -19 -11 -19 -5 0 -8 -4 -4 -9 3 -5 1 -12 -5 -16 -6 -4 -8 -10 -5
-15 3 -5 0 -14 -7 -22 -12 -13 -15 -21 -23 -58 -2 -8 -4 -15 -5 -15 -3 0 -11
-41 -11 -57 0 -10 -5 -20 -10 -23 -5 -4 -7 -11 -4 -16 4 -5 3 -14 -1 -21 -7
-11 -11 -44 -18 -138 -2 -25 -5 -45 -6 -45 -1 0 -3 -19 -4 -42 -1 -24 1 -43 5
-43 4 0 7 -23 5 -51 -1 -27 1 -52 4 -54 4 -3 6 -20 5 -40 -1 -19 2 -35 5 -35
4 0 7 -6 8 -12 2 -24 18 -101 22 -105 2 -2 4 -7 5 -13 1 -5 4 -13 5 -17 2 -5
4 -12 4 -18 1 -5 7 -20 14 -33 7 -12 9 -22 5 -22 -4 0 -2 -4 5 -8 7 -5 14 -19
17 -31 2 -13 12 -35 22 -50 9 -14 16 -28 14 -30 -1 -2 2 -7 7 -10 6 -3 12 -13
14 -21 2 -8 8 -19 15 -25 7 -5 13 -17 15 -25 2 -8 12 -22 23 -32 11 -9 16 -17
12 -18 -4 0 5 -13 20 -29 15 -15 44 -47 63 -70 49 -59 130 -141 130 -133 0 4
16 -10 35 -32 19 -21 35 -34 35 -30 0 5 6 2 13 -7 16 -20 121 -90 169 -112 20
-10 40 -22 43 -27 4 -6 10 -8 15 -5 4 3 13 -2 20 -10 7 -8 16 -12 21 -9 5 3 9
1 9 -5 0 -6 6 -8 14 -5 7 3 21 -2 30 -11 9 -9 16 -14 16 -11 0 2 15 0 33 -5
33 -10 63 -18 84 -23 7 -1 15 -5 19 -8 3 -4 12 -4 19 -2 7 3 16 1 19 -5 4 -5
18 -8 32 -5 14 3 30 1 37 -3 27 -17 298 -16 325 1 7 4 19 5 27 2 8 -3 17 -1
20 4 3 4 16 7 30 5 14 -1 25 1 25 6 0 4 9 6 20 4 11 -2 20 1 20 7 0 5 7 8 15
5 8 -4 17 -2 21 4 3 6 12 8 20 5 8 -3 14 -1 14 4 0 6 3 9 8 8 7 -1 24 4 72 24
14 5 26 8 26 6 1 -1 11 5 21 15 11 9 23 14 26 10 4 -3 7 -2 7 4 0 9 46 31 65
32 3 0 15 10 27 20 11 11 25 18 30 15 4 -3 8 -1 8 3 0 5 32 33 70 63 39 30 70
59 70 64 0 5 2 7 5 4 6 -6 88 75 140 138 17 20 40 47 52 60 12 13 30 37 39 54
10 16 22 30 27 30 4 0 5 5 2 10 -3 6 1 13 9 16 9 3 14 10 11 14 -3 5 0 14 7
22 7 7 14 20 16 28 2 8 9 18 15 22 7 4 8 8 4 8 -5 0 0 12 11 28 11 15 20 29
20 32 1 23 16 60 24 60 5 0 6 5 3 10 -3 6 -3 16 2 23 4 6 9 18 10 25 6 26 12
47 14 52 1 3 3 10 4 15 2 6 4 12 5 15 4 12 11 57 12 82 0 16 3 28 7 28 12 0
14 272 1 300 -1 3 -4 19 -6 35 -6 43 -12 80 -14 83 -2 1 -3 10 -4 20 -1 9 -5
23 -9 30 -5 6 -5 17 -2 22 3 6 1 10 -5 10 -6 0 -10 6 -8 13 1 6 -3 22 -10 35
-7 12 -10 22 -6 22 3 0 1 7 -6 15 -7 8 -9 15 -5 15 5 0 0 8 -9 19 -9 10 -18
28 -19 40 -1 11 -5 21 -10 21 -4 0 -5 5 -2 10 3 6 1 10 -4 10 -6 0 -17 15 -25
34 -8 18 -19 37 -25 40 -6 4 -9 12 -6 17 4 5 1 9 -6 9 -7 0 -10 3 -7 6 3 3 -4
16 -16 29 -27 29 -41 47 -47 59 -2 6 -19 25 -38 43 -19 18 -32 33 -29 33 3 0
-19 25 -49 55 -30 30 -58 55 -62 55 -4 0 -22 16 -39 36 -18 20 -32 32 -32 27
0 -4 -11 4 -24 19 -12 15 -26 25 -29 21 -4 -3 -9 2 -13 11 -3 9 -10 13 -15 10
-5 -3 -12 2 -15 10 -3 9 -10 13 -15 10 -5 -3 -12 2 -15 10 -3 9 -10 14 -14 11
-4 -3 -13 2 -20 10 -7 8 -16 12 -21 9 -5 -3 -9 0 -9 6 0 6 -4 8 -10 5 -5 -3
-10 -1 -10 6 0 7 -3 9 -7 6 -3 -4 -13 -1 -21 5 -8 7 -21 13 -30 15 -9 1 -18 6
-20 12 -2 5 -10 7 -18 4 -8 -3 -14 1 -14 8 0 7 -3 9 -6 6 -4 -3 -14 -2 -24 3
-9 5 -32 12 -51 15 -18 3 -36 10 -39 14 -3 5 -13 7 -22 5 -10 -1 -18 1 -18 4
0 4 -10 8 -22 9 -13 1 -39 4 -58 7 -19 3 -60 7 -90 9 -30 3 -55 5 -55 7 0 6
-97 4 -101 -2z"/>
</g>
</svg>
